<mxfile host="app.diagrams.net" modified="2022-02-01T04:29:45.324Z" agent="5.0 (Macintosh; Intel Mac OS X 10_15_7) AppleWebKit/537.36 (KHTML, like Gecko) Chrome/97.0.4692.99 Safari/537.36" etag="UroyetmeMOwySo1UzhSp" version="16.5.2" type="github">
  <diagram id="_dCzTg_BiukmUL6Kkg2Q" name="Page-1">
    <mxGraphModel dx="1426" dy="769" grid="1" gridSize="10" guides="1" tooltips="1" connect="1" arrows="1" fold="1" page="1" pageScale="1" pageWidth="850" pageHeight="1100" math="0" shadow="0">
      <root>
        <mxCell id="0" />
        <mxCell id="1" parent="0" />
        <mxCell id="dvo3AJZUIHwXUwy0Vl7a-1" style="edgeStyle=none;html=1;" edge="1" parent="1" source="dvo3AJZUIHwXUwy0Vl7a-2">
          <mxGeometry relative="1" as="geometry">
            <mxPoint x="260" y="640" as="targetPoint" />
          </mxGeometry>
        </mxCell>
        <mxCell id="dvo3AJZUIHwXUwy0Vl7a-2" value="&lt;font style=&quot;font-size: 12px&quot;&gt;クライアント&lt;/font&gt;" style="rounded=0;whiteSpace=wrap;html=1;" vertex="1" parent="1">
          <mxGeometry x="200" y="80" width="120" height="40" as="geometry" />
        </mxCell>
        <mxCell id="dvo3AJZUIHwXUwy0Vl7a-3" style="edgeStyle=none;html=1;" edge="1" parent="1" source="dvo3AJZUIHwXUwy0Vl7a-4">
          <mxGeometry relative="1" as="geometry">
            <mxPoint x="740" y="640" as="targetPoint" />
          </mxGeometry>
        </mxCell>
        <mxCell id="dvo3AJZUIHwXUwy0Vl7a-4" value="&lt;font style=&quot;font-size: 12px&quot;&gt;サーバ&lt;/font&gt;" style="rounded=0;whiteSpace=wrap;html=1;" vertex="1" parent="1">
          <mxGeometry x="680" y="80" width="120" height="40" as="geometry" />
        </mxCell>
        <mxCell id="dvo3AJZUIHwXUwy0Vl7a-5" value="" style="endArrow=classic;html=1;fontSize=12;" edge="1" parent="1">
          <mxGeometry width="50" height="50" relative="1" as="geometry">
            <mxPoint x="260" y="160" as="sourcePoint" />
            <mxPoint x="740" y="200" as="targetPoint" />
          </mxGeometry>
        </mxCell>
        <mxCell id="dvo3AJZUIHwXUwy0Vl7a-6" value="Hello&lt;br&gt;&lt;div&gt;+ key_share&lt;/div&gt;&lt;div&gt;+ signature_algorithms&lt;/div&gt;&lt;div&gt;+ psk_key_exchange_modes&lt;br&gt;&lt;/div&gt;&lt;div&gt;+ pre_shared_key&lt;br&gt;&lt;/div&gt;" style="text;html=1;strokeColor=none;fillColor=none;align=right;verticalAlign=middle;whiteSpace=wrap;rounded=0;fontSize=12;" vertex="1" parent="1">
          <mxGeometry x="80" y="130" width="170" height="80" as="geometry" />
        </mxCell>
        <mxCell id="dvo3AJZUIHwXUwy0Vl7a-7" value="" style="endArrow=classic;html=1;fontSize=12;" edge="1" parent="1">
          <mxGeometry width="50" height="50" relative="1" as="geometry">
            <mxPoint x="260" y="320" as="sourcePoint" />
            <mxPoint x="740" y="360" as="targetPoint" />
          </mxGeometry>
        </mxCell>
        <mxCell id="dvo3AJZUIHwXUwy0Vl7a-9" value="" style="endArrow=classic;html=1;fontSize=12;" edge="1" parent="1">
          <mxGeometry width="50" height="50" relative="1" as="geometry">
            <mxPoint x="740" y="240" as="sourcePoint" />
            <mxPoint x="260" y="280" as="targetPoint" />
          </mxGeometry>
        </mxCell>
        <mxCell id="dvo3AJZUIHwXUwy0Vl7a-10" value="Hello Retry&lt;br&gt;+ cookie" style="text;html=1;strokeColor=none;fillColor=none;align=left;verticalAlign=middle;whiteSpace=wrap;rounded=0;fontSize=12;" vertex="1" parent="1">
          <mxGeometry x="750" y="230" width="120" height="30" as="geometry" />
        </mxCell>
        <mxCell id="dvo3AJZUIHwXUwy0Vl7a-11" value="" style="endArrow=classic;html=1;fontSize=12;" edge="1" parent="1">
          <mxGeometry width="50" height="50" relative="1" as="geometry">
            <mxPoint x="740" y="400" as="sourcePoint" />
            <mxPoint x="260" y="440" as="targetPoint" />
          </mxGeometry>
        </mxCell>
        <mxCell id="dvo3AJZUIHwXUwy0Vl7a-15" value="送ったcookieが付与&lt;br&gt;されていればHelloを受理" style="text;html=1;strokeColor=none;fillColor=none;align=left;verticalAlign=middle;whiteSpace=wrap;rounded=0;fontSize=12;" vertex="1" parent="1">
          <mxGeometry x="750" y="330" width="150" height="50" as="geometry" />
        </mxCell>
        <mxCell id="dvo3AJZUIHwXUwy0Vl7a-19" value="Hello&lt;br&gt;&lt;div&gt;+ key_share&lt;/div&gt;&lt;div&gt;+ signature_algorithms&lt;/div&gt;&lt;div&gt;+ psk_key_exchange_modes&lt;br&gt;&lt;/div&gt;&lt;div&gt;+ pre_shared_key&lt;br&gt;&lt;/div&gt;&lt;div&gt;+ cookie&lt;/div&gt;" style="text;html=1;strokeColor=none;fillColor=none;align=right;verticalAlign=middle;whiteSpace=wrap;rounded=0;fontSize=12;" vertex="1" parent="1">
          <mxGeometry x="80" y="290" width="170" height="80" as="geometry" />
        </mxCell>
        <mxCell id="dvo3AJZUIHwXUwy0Vl7a-20" value="&lt;div&gt;ServerHello&lt;/div&gt;&lt;div&gt;+ key_share&lt;/div&gt;&lt;div&gt;+ pre_shared_key&lt;/div&gt;" style="text;html=1;strokeColor=none;fillColor=none;align=left;verticalAlign=middle;whiteSpace=wrap;rounded=0;fontSize=12;" vertex="1" parent="1">
          <mxGeometry x="750" y="380" width="140" height="50" as="geometry" />
        </mxCell>
        <mxCell id="dvo3AJZUIHwXUwy0Vl7a-21" value="&lt;div&gt;&lt;div&gt;EncryptedExtensions&lt;/div&gt;&lt;div&gt;CertificateRequest&lt;/div&gt;&lt;div&gt;Certificate&lt;/div&gt;&lt;div&gt;CertificateVerify&lt;/div&gt;&lt;div&gt;Finished&lt;/div&gt;&lt;/div&gt;" style="text;html=1;strokeColor=none;fillColor=none;align=left;verticalAlign=middle;whiteSpace=wrap;rounded=0;fontSize=12;" vertex="1" parent="1">
          <mxGeometry x="750" y="440" width="140" height="80" as="geometry" />
        </mxCell>
        <mxCell id="dvo3AJZUIHwXUwy0Vl7a-22" value="" style="endArrow=classic;html=1;fontSize=12;" edge="1" parent="1">
          <mxGeometry width="50" height="50" relative="1" as="geometry">
            <mxPoint x="740" y="460" as="sourcePoint" />
            <mxPoint x="260" y="500" as="targetPoint" />
          </mxGeometry>
        </mxCell>
        <mxCell id="dvo3AJZUIHwXUwy0Vl7a-23" value="" style="endArrow=classic;html=1;fontSize=12;" edge="1" parent="1">
          <mxGeometry width="50" height="50" relative="1" as="geometry">
            <mxPoint x="260" y="540" as="sourcePoint" />
            <mxPoint x="740" y="580" as="targetPoint" />
          </mxGeometry>
        </mxCell>
        <mxCell id="dvo3AJZUIHwXUwy0Vl7a-25" value="&lt;div&gt;&lt;span&gt;Certificate&lt;/span&gt;&lt;br&gt;&lt;/div&gt;&lt;div&gt;CertificateVerify&lt;/div&gt;&lt;div&gt;Finished&lt;/div&gt;" style="text;html=1;strokeColor=none;fillColor=none;align=right;verticalAlign=middle;whiteSpace=wrap;rounded=0;fontSize=12;" vertex="1" parent="1">
          <mxGeometry x="110" y="520" width="140" height="50" as="geometry" />
        </mxCell>
      </root>
    </mxGraphModel>
  </diagram>
</mxfile>
